<svg width="70.000000" height="70.000000" viewBox="0 0 70 70" fill="none" xmlns="http://www.w3.org/2000/svg" xmlns:xlink="http://www.w3.org/1999/xlink">
	<desc>
			Created with Pixso.
	</desc>
	<defs>
		<clipPath id="clip4_26">
			<rect id="shopping-cart-_1_ 1" rx="-0.500000" width="34.000000" height="34.000000" transform="translate(15.500000 17.500000)" fill="white" fill-opacity="0"/>
		</clipPath>
	</defs>
	<path id="Ellipse 1" d="M70 35C70 54.33 54.33 70 35 70C15.66 70 0 54.33 0 35C0 15.66 15.66 0 35 0C54.33 0 70 15.66 70 35Z" fill="#312626" fill-opacity="1.000000" fill-rule="nonzero"/>
	<rect id="shopping-cart-_1_ 1" rx="-0.500000" width="34.000000" height="34.000000" transform="translate(15.500000 17.500000)" fill="#FFFFFF" fill-opacity="0"/>
	<g clip-path="url(#clip4_26)">
		<path id="Vector" d="M15.53 19.26C15.23 19.41 15 19.81 15 20.14C15 20.48 15.23 20.87 15.54 21.03C15.79 21.16 15.94 21.16 18.05 21.16L20.3 21.16L22.77 29.82L25.24 38.47L25.04 38.87C24.7 39.55 24.55 40.08 24.55 40.65C24.55 42.07 25.47 43.26 26.86 43.62C27.15 43.7 27.64 43.72 28.67 43.73C29.93 43.74 30.03 43.74 29.73 43.82C29.15 43.96 28.72 44.21 28.28 44.65C27.07 45.85 27.07 47.74 28.29 48.95C30.05 50.72 33.04 49.76 33.47 47.29C33.63 46.32 33.32 45.36 32.6 44.64C32.17 44.21 31.62 43.89 31.11 43.79C30.94 43.76 32.9 43.74 35.61 43.74C39.57 43.74 40.33 43.75 40.05 43.82C39.47 43.96 39.04 44.21 38.61 44.65C37.4 45.85 37.4 47.75 38.61 48.95C40.38 50.72 43.36 49.76 43.79 47.29C44.05 45.73 43.03 44.2 41.48 43.82C41.19 43.74 41.41 43.74 43.11 43.73C44.94 43.72 45.1 43.72 45.35 43.59C45.65 43.43 45.89 43.04 45.89 42.7C45.89 42.36 45.65 41.97 45.35 41.81C45.08 41.67 44.96 41.67 36.24 41.67C27.96 41.67 27.39 41.67 27.16 41.55C26.61 41.28 26.47 40.67 26.8 40L26.99 39.62L36.03 39.62C45 39.62 45.08 39.62 45.35 39.49C45.54 39.38 45.67 39.26 45.76 39.05C45.94 38.67 50 24.43 50 24.19C50 23.91 49.72 23.49 49.45 23.35C49.22 23.22 48.74 23.22 36.11 23.22L23.01 23.22L22.56 21.59C21.99 19.61 21.92 19.44 21.53 19.26C21.25 19.12 21.13 19.11 18.51 19.11C15.93 19.12 15.77 19.13 15.53 19.26ZM47.58 25.38C47.55 25.45 46.77 28.22 45.82 31.54L44.1 37.57L35.61 37.57L27.12 37.57L25.39 31.54C24.44 28.22 23.66 25.45 23.64 25.38C23.6 25.27 24.2 25.27 35.61 25.27C47.01 25.27 47.61 25.27 47.58 25.38ZM30.92 45.91C31.23 46.07 31.47 46.46 31.47 46.81C31.47 47.31 30.95 47.83 30.44 47.83C30.12 47.83 29.7 47.56 29.55 47.26C29.3 46.77 29.45 46.23 29.94 45.94C30.27 45.74 30.57 45.73 30.92 45.91ZM41.25 45.91C41.55 46.07 41.79 46.46 41.79 46.81C41.79 47.31 41.27 47.83 40.76 47.83C40.45 47.83 40.02 47.56 39.87 47.26C39.62 46.77 39.78 46.23 40.26 45.94C40.59 45.74 40.89 45.73 41.25 45.91Z" fill="#FFFFFF" fill-opacity="1.000000" fill-rule="nonzero"/>
	</g>
</svg>
